# xmcd
#
# Track frame offsets:
#	150
#	12511
#	26855
#	43881
#	61226
#	79684
#	96471
#	116173
#	133364
#	149901
#
# Disc length: 2191 seconds
#
# Revision: 1
# Processed by: cddbd v1.4b41PL1 Copyright (c) Steve Scherf et al.
# Submitted via: audiograbber 1.80
#
DISCID=9e088d0a
DTITLE=Shania Twain - Wild and Wicked
DYEAR=1900
DGENRE=
TTITLE0=Bite my lip
TTITLE1=Wild and Wicked
TTITLE2=Send it with love
TTITLE3=Once over
TTITLE4=Hate to Love
TTITLE5=Luv eyes
TTITLE6=I lost my heart when I found you
TTITLE7=The rhythm made me do it
TTITLE8=Two hearts one love
TTITLE9=Half Breed
EXTD=
EXTT0=
EXTT1=
EXTT2=
EXTT3=
EXTT4=
EXTT5=
EXTT6=
EXTT7=
EXTT8=
EXTT9=
PLAYORDER=
